# xmcd
#
# Track frame offsets: 
#        150
#        11866
#        26822
#        36952
#        47926
#        60767
#        73391
#        84804
#        98994
#        113421
#
# Disc length: 1651 seconds
#
# Revision: 4
# Processed by: cddbd v1.5.2PL0 Copyright (c) Steve Scherf et al.
# Submitted via: ExactAudioCopyFreeDBPlugin 1.0
#
DISCID=7d06710a
DTITLE=Ray Charles - Ray Charles [Hit The Road Jack] Disc 2
DYEAR=2005
DGENRE=Blues
TTITLE0=Hit The Road Jack
TTITLE1=Hallelujah, I Love Her So
TTITLE2=I'm Movin' On
TTITLE3=I Wonder Who's Kissing Her Now
TTITLE4=Can Anyone Ask For More
TTITLE5=Rockin' Chair Blues
TTITLE6=If I Give You My Love
TTITLE7=Blues Is My Middle Name
TTITLE8=Kissa Me Baby
TTITLE9=Hey Now
EXTD=Original American Classics CD set.  Disc #2.
EXTT0=
EXTT1=
EXTT2=
EXTT3=
EXTT4=
EXTT5=
EXTT6=
EXTT7=
EXTT8=
EXTT9=
PLAYORDER=
